<svg xmlns="http://www.w3.org/2000/svg" viewBox="0 0 120 120" width="120" height="120" role="img" aria-label="Lightbulb-with-leaf — Concept">
  <title>Lightbulb-with-leaf — Concept</title>
<path d="M60 18c-16 0-28 12-28 27 0 10 5 17 12 23v10c0 3 2 5 5 5h22c3 0 5-2 5-5V68c7-6 12-13 12-23 0-15-12-27-28-27z" fill="#FCD34D" stroke="#064E3B" stroke-width="3" stroke-linejoin="round"></path>
      <rect x="48" y="88" width="24" height="6" rx="2" fill="#064E3B"></rect>
      <rect x="51" y="98" width="18" height="6" rx="2" fill="#064E3B"></rect>
      <path d="M75 38c5-8 14-10 22-7-3 9-10 14-19 13" fill="#10B981" stroke="#064E3B" stroke-width="2.5" stroke-linejoin="round"></path>
      <path d="M82 38c2 0 4 0 6-1" stroke="#064E3B" stroke-width="2" fill="none" stroke-linecap="round"></path>
      <circle cx="52" cy="50" r="2" fill="#064E3B"></circle>
      <circle cx="68" cy="50" r="2" fill="#064E3B"></circle>
      <path d="M52 60c4 4 12 4 16 0" stroke="#064E3B" stroke-width="2.5" fill="none" stroke-linecap="round"></path>
</svg>